# xmcd
#
# Track frame offsets:
#	150
#	15093
#	30393
#	53588
#	70825
#	86584
#	105314
#	125875
#	140076
#	155875
#	176956
#	188271
#	200728
#	212875
#	229009
#	241968
#	254063
#	267060
#	287279
#	300416
#	322965
#
# Disc length: 4509 seconds
#
# Revision: 1
# Processed by: cddbd v1.4PL0 Copyright (c) Steve Scherf et al.
# Submitted via: EasyCDDAExtractor 5.0.6
#
DISCID=21119b15
DTITLE=Various Artist - Dj Renê Ricochet
DYEAR=2003
DGENRE=country
TTITLE0=Carlos Henrique and Emiliano - Feito Espora
TTITLE1=Rômulo and Ruan - É mole-mole de cantar
TTITLE2=Márcio and Marcelo - Noite fria (remix dj Renê)
TTITLE3=Brunno and Marlow - Alô Galera
TTITLE4=Henrick and Ruan - Amanhã vou lá hoje
TTITLE5=Roniel and Rafael - Saudade de você (remix dj Renê)
TTITLE6=Marcos Paulo and Daniel - Olhos cor de Mel (remix dj Renê)
TTITLE7=Régis and Adriano - Bicho bão
TTITLE8=Carlos Henrique and Emiliano - Mete Cerveja no povo
TTITLE9=Nilsson Freire  - Medley de bailão (forró Minas Goiás/do lado de cá/co
TTITLE9=uro furado)
TTITLE10=Régis and Adriano - Mulher é bom de mais
TTITLE11=Marcos Paulo and Daniel - Peão de rodeio
TTITLE12=Carlos Henrique and Emiliano - Hoje a cobra vai fumar
TTITLE13=Marcelo and Alessandro - É amor
TTITLE14=Toni and Lucas - Um novo amor
TTITLE15=Carlos Henrique and Emiliano - Vida de peão
TTITLE16=Cleber and Juliano - Eu tô xonado
TTITLE17=Henrick and Ruan - Medley (remix dj Renê)
TTITLE18=Jorge Dinho and Diego - Toda festa de peão é animada
TTITLE19=Zé Henrique and Dorival - 17 e 40 (remix dj Renê)
TTITLE20=Rômulo and Ruan - Vagabundo
EXTD=
EXTT0=
EXTT1=
EXTT2=
EXTT3=
EXTT4=
EXTT5=
EXTT6=
EXTT7=
EXTT8=
EXTT9=
EXTT10=
EXTT11=
EXTT12=
EXTT13=
EXTT14=
EXTT15=
EXTT16=
EXTT17=
EXTT18=
EXTT19=
EXTT20=
PLAYORDER=
